<mxfile host="Electron" modified="2023-08-22T12:44:31.470Z" agent="5.0 (Windows NT 10.0; Win64; x64) AppleWebKit/537.36 (KHTML, like Gecko) draw.io/20.3.0 Chrome/104.0.5112.114 Electron/20.1.3 Safari/537.36" etag="AyGQ2ENBVGxNS1lu8mjL" compressed="false" version="20.3.0" type="device">
  <diagram name="ND0032" id="qsxdDLgZaSoumH7-Wchw">
    <mxGraphModel dx="1408" dy="843" grid="1" gridSize="2" guides="1" tooltips="1" connect="1" arrows="1" fold="1" page="1" pageScale="1" pageWidth="1169" pageHeight="827" math="0" shadow="0">
      <root>
        <mxCell id="SXBRzpKuDRuvWZq6fp0s-0" />
        <mxCell id="SXBRzpKuDRuvWZq6fp0s-124" value="Connection" style="" parent="SXBRzpKuDRuvWZq6fp0s-0" />
        <object label="Connection" PipingConnector="N" LabelConnector="Y" SignalConnector="Y" Direction="0, 45, 315" AuxiliaryConnector="N" id="SXBRzpKuDRuvWZq6fp0s-125">
          <mxCell style="vsdxID=1407;fillColor=none;gradientColor=none;shape=stencil(rVFbDsIgEDwNnyQU4glqvcfGblsilmZBS28vZGMsxg9j/JvZmX1kR5g2TLCg0CpE8hdcbR8nYY5CaztPSDZmJEwnTDt4wpH8be6ZL1CcBV39vUxI3KdKh1YbswPTEzuBzlmiVGmKau9zUKM+jlJJQrJBko8QrZ+rrQ5oRJnXyMHBWElhRVx25ebnw/5zVvPFWRm83jxY5zilvf4eSy5xpKZ7AA==);strokeColor=#00FF00;strokeWidth=1;points=[[0.5,0.5,0,0,0]];labelBackgroundColor=none;rounded=0;html=1;whiteSpace=wrap;aspect=fixed;noLabel=1;snapToPoint=1;container=0;fontSize=16;" parent="SXBRzpKuDRuvWZq6fp0s-124" vertex="1">
            <mxGeometry x="202" y="170" width="12" height="12" as="geometry" />
          </mxCell>
        </object>
        <object label="Connection" PipingConnector="Y" LabelConnector="N" SignalConnector="N" Direction="90;270" AuxiliaryConnector="N" id="SXBRzpKuDRuvWZq6fp0s-126">
          <mxCell style="vsdxID=1407;fillColor=none;gradientColor=none;shape=stencil(rVFbDsIgEDwNnyQU4glqvcfGblsilmZBS28vZGMsxg9j/JvZmX1kR5g2TLCg0CpE8hdcbR8nYY5CaztPSDZmJEwnTDt4wpH8be6ZL1CcBV39vUxI3KdKh1YbswPTEzuBzlmiVGmKau9zUKM+jlJJQrJBko8QrZ+rrQ5oRJnXyMHBWElhRVx25ebnw/5zVvPFWRm83jxY5zilvf4eSy5xpKZ7AA==);strokeColor=#00FF00;strokeWidth=1;points=[[0.5,0.5,0,0,0]];labelBackgroundColor=none;rounded=0;html=1;whiteSpace=wrap;aspect=fixed;noLabel=1;snapToPoint=1;container=0;fontSize=16;" parent="SXBRzpKuDRuvWZq6fp0s-124" vertex="1">
            <mxGeometry x="186" y="170" width="12" height="12" as="geometry" />
          </mxCell>
        </object>
        <mxCell id="SXBRzpKuDRuvWZq6fp0s-131" value="Label" style="locked=1;" parent="SXBRzpKuDRuvWZq6fp0s-0" />
        <mxCell id="SXBRzpKuDRuvWZq6fp0s-132" value="Origo" style="locked=1;" parent="SXBRzpKuDRuvWZq6fp0s-0" visible="0" />
        <object label="origo" id="SXBRzpKuDRuvWZq6fp0s-133">
          <mxCell style="vsdxID=1407;fillColor=none;gradientColor=none;shape=stencil(rVFbDsIgEDwNnyQU4glqvcfGblsilmZBS28vZGMsxg9j/JvZmX1kR5g2TLCg0CpE8hdcbR8nYY5CaztPSDZmJEwnTDt4wpH8be6ZL1CcBV39vUxI3KdKh1YbswPTEzuBzlmiVGmKau9zUKM+jlJJQrJBko8QrZ+rrQ5oRJnXyMHBWElhRVx25ebnw/5zVvPFWRm83jxY5zilvf4eSy5xpKZ7AA==);strokeColor=#ff0000;strokeWidth=1;points=[[0.5,0.5,0,0,0]];labelBackgroundColor=none;rounded=0;html=1;whiteSpace=wrap;aspect=fixed;noLabel=1;snapToPoint=1;" parent="SXBRzpKuDRuvWZq6fp0s-132" vertex="1">
            <mxGeometry x="188.06" y="172.06" width="7.874" height="7.87" as="geometry" />
          </mxCell>
        </object>
        <object label="Symbol" Width="2" Height="4" UoM="mm" id="SXBRzpKuDRuvWZq6fp0s-134">
          <mxCell style="" parent="SXBRzpKuDRuvWZq6fp0s-0" />
        </object>
        <mxCell id="SXBRzpKuDRuvWZq6fp0s-135" value="" style="endArrow=none;html=1;rounded=0;" parent="SXBRzpKuDRuvWZq6fp0s-134" edge="1">
          <mxGeometry width="50" height="50" relative="1" as="geometry">
            <mxPoint x="176" y="208" as="sourcePoint" />
            <mxPoint x="176" y="144" as="targetPoint" />
          </mxGeometry>
        </mxCell>
        <mxCell id="SXBRzpKuDRuvWZq6fp0s-136" value="" style="endArrow=none;html=1;rounded=0;" parent="SXBRzpKuDRuvWZq6fp0s-134" edge="1">
          <mxGeometry width="50" height="50" relative="1" as="geometry">
            <mxPoint x="207.82999999999998" y="208" as="sourcePoint" />
            <mxPoint x="207.82999999999998" y="144" as="targetPoint" />
          </mxGeometry>
        </mxCell>
      </root>
    </mxGraphModel>
  </diagram>
</mxfile>
